# xmcd
#
# Track frame offsets:
#	150
#	16274
#	37499
#	55461
#	73964
#	90315
#	106749
#	128003
#	145874
#	160201
#	184539
#
# Disc length: 2610 seconds
# Revision: 0
# Processed by: cddbd v1.5.2PL0 Copyright (c) Steve Scherf et al.
# Submitted via: dBpowerAMP V12.0
#
DISCID=940a300b
DTITLE=Missy Raines - Royal Treveller
DYEAR=2018
DGENRE=Bluegrass
TTITLE0=Allegheny Town
TTITLE1=Fearless Love
TTITLE2=Swept Away
TTITLE3=Royal Traveller
TTITLE4=Free World
TTITLE5=I've Endured
TTITLE6=Under a Dark Sky
TTITLE7=To Here From There
TTITLE8=Goodbye Virginia
TTITLE9=So Good (Tell Me What to Keep)
TTITLE10=Darlin' Pal(s) o  f Mine
EXTD=
EXTT0=
EXTT1=
EXTT2=
EXTT3=
EXTT4=
EXTT5=
EXTT6=
EXTT7=
EXTT8=
EXTT9=
EXTT10=
PLAYORDER=
